# xmcd
#
# Track frame offsets:
#	150
#	13488
#	28944
#	41598
#	54837
#	71730
#	83889
#	102423
#	119433
#	131107
#	147190
#	161209
#	177499
#	189787
#	203359
#	218813
#
# Disc length: 3090 seconds
#
# Revision: 1
# Processed by: cddbd v1.5.2PL0 Copyright (c) Steve Scherf et al.
# Submitted via: audiograbber 1.83.01
#
DISCID=ea0c1010
DTITLE=Luke Powers - Texass TLuke Powers
DYEAR=2008
DGENRE=Country
TTITLE0=Texasee
TTITLE1=Billy The Kid Rides Again
TTITLE2=Bob Bradlee, Tv Cowboy
TTITLE3=Here Today
TTITLE4=Selmer Tennessee
TTITLE5=Indian Eyes
TTITLE6=Aron Presley
TTITLE7=Pops Of The Trees
TTITLE8=Million Ways To Die
TTITLE9=In The Real World
TTITLE10=W Road Ghost
TTITLE11=Paul Is Dead
TTITLE12=The Tower
TTITLE13=My Hero
TTITLE14=To Young To Die
TTITLE15=Lower Broad
EXTD=
EXTT0=
EXTT1=
EXTT2=
EXTT3=
EXTT4=
EXTT5=
EXTT6=
EXTT7=
EXTT8=
EXTT9=
EXTT10=
EXTT11=
EXTT12=
EXTT13=
EXTT14=
EXTT15=
PLAYORDER=
